:SAMPLES-PER-SECOND 30
:FULLY-SPECIFIED
:DEGREES
65
root  44.8676 38.6492 -1.5107 -106.423 -85.4816 106.025
RightUpLeg  -27.9602 -10.9813 0.73422
RightLeg  8.62315 -6.85948 1.82823
RightFoot  -2.15403 -0.639148 7.75551
RightToes  0.00048216 0.542163 -0.142577
Spine  17.9802 -1.20164 -8.1822
Spine1  11.594 -3.38249 3.2815
HEad  1.53654 7.09475 -2.39767
LeftShoulder1  8.61129 -12.2637 -47.6647
LeftArm  -13.2436 -1.64264 -28.9459
LeftForeArm  25.6542 -16.2704 -3.96381
LeftHand  -0.25398 0.0180481 5.50724
RightShoulder  5.98535 9.41835 40.171
RightArm  19.1435 -31.9253 35.8588
RightForeArm  -10.0002 26.4036 6.18084
RightHand  -0.88007 0.428495 -17.56
LeftUpLeg  8.52366 5.07894 -6.02443
LeftLeg  12.0774 19.2796 -2.6765
LeftFoot  -21.5824 0.0309794 -1.1042
LeftToes  1.06248e-005 4.65856e-005 -8.185e-006
66
root  43.3366 38.2217 -1.45227 -106.171 -85.0605 106.241
RightUpLeg  -29.3793 -11.8004 1.75746
RightLeg  9.58015 -7.8803 1.27965
RightFoot  -2.87534 -0.561503 7.31246
RightToes  0.00048216 0.542163 -0.142577
Spine  18.5205 -1.57574 -7.73225
Spine1  11.4648 -3.76978 3.2169
HEad  -0.356551 7.54389 -3.08753
LeftShoulder1  8.81814 -12.5683 -47.8889
LeftArm  -11.6851 -4.2988 -28.8719
LeftForeArm  25.045 -18.6683 -3.79426
LeftHand  -0.25398 0.0180481 5.50724
RightShoulder  6.03345 9.51337 40.2008
RightArm  19.6288 -34.9247 35.9355
RightForeArm  -9.66777 27.4536 6.41488
RightHand  -0.81368 0.121473 -17.122
LeftUpLeg  10.6937 5.01528 -6.61626
LeftLeg  12.0607 19.3239 -2.52774
LeftFoot  -23.9966 -0.0494096 -1.72937
LeftToes  1.06248e-005 4.65856e-005 -8.185e-006
67
root  41.739 37.8088 -1.37014 -103.091 -85.3746 103.924
RightUpLeg  -32.0004 -13.6245 4.26904
RightLeg  14.2886 -5.96988 -0.894174
RightFoot  -2.1653 -0.370618 4.49623
RightToes  0.00048216 0.542163 -0.142577
Spine  19.0992 -2.2034 -6.15403
Spine1  11.3497 -4.34579 3.34034
HEad  -2.5158 7.74629 -4.05072
LeftShoulder1  9.06174 -12.8577 -48.3478
LeftArm  -9.70311 -6.98318 -29.1713
LeftForeArm  24.9655 -21.5959 -3.65453
LeftHand  -0.25398 0.0180481 5.50724
RightShoulder  6.05003 9.53099 40.2618
RightArm  19.1891 -37.3084 36.0564
RightForeArm  -9.86793 28.2866 6.62704
RightHand  -0.804687 0.128812 -16.9169
LeftUpLeg  12.8831 5.0276 -6.52235
LeftLeg  11.5251 18.8401 -2.34276
LeftFoot  -26.0221 -0.208529 -2.83872
LeftToes  1.06248e-005 4.65856e-005 -8.185e-006
68
root  40.0524 37.4127 -1.26889 -99.7233 -86.5154 101.672
RightUpLeg  -35.1565 -13.1 5.89301
RightLeg  21.6316 -6.37114 -3.13636
RightFoot  -1.46887 -0.101698 1.0078
RightToes  0.00048216 0.542163 -0.142577
Spine  19.7656 -2.98314 -3.38792
Spine1  10.9301 -4.91162 3.6106
HEad  -4.94346 7.76137 -5.17437
LeftShoulder1  9.32351 -13.1343 -48.9224
LeftArm  -8.62643 -9.40297 -30.0341
LeftForeArm  26.4495 -24.998 -3.92219
LeftHand  -0.25398 0.0180481 5.50724
RightShoulder  6.07476 9.59604 40.2227
RightArm  16.8628 -38.9651 36.4788
RightForeArm  -10.3073 28.4778 6.69601
RightHand  -0.905116 0.662707 -17.3806
LeftUpLeg  14.8954 5.61855 -5.3561
LeftLeg  10.9862 17.8247 -2.11323
LeftFoot  -27.3326 -0.289095 -3.23902
LeftToes  1.06248e-005 4.65856e-005 -8.185e-006
69
root  38.2665 36.9865 -1.13825 -98.4774 -88.3779 101.771
RightUpLeg  -38.2332 -11.5728 6.9487
RightLeg  30.1784 -8.25239 -5.38096
RightFoot  -3.38416 -0.00188015 -0.251669
RightToes  0.00048216 0.542163 -0.142577
Spine  20.862 -3.81246 0.356201
Spine1  9.87699 -5.35696 4.01648
HEad  -7.67191 7.79459 -6.59164
LeftShoulder1  9.59427 -13.4377 -49.4435
LeftArm  -8.36612 -11.1987 -31.5317
LeftForeArm  29.0209 -28.8914 -4.67163
LeftHand  -0.25398 0.0180481 5.50724
RightShoulder  6.15823 9.83456 40.0309
RightArm  12.9062 -39.6124 36.9559
RightForeArm  -10.0573 28.0916 6.58892
RightHand  -1.17066 1.9739 -18.5375
LeftUpLeg  16.3857 6.98614 -3.26953
LeftLeg  11.456 16.2265 -1.25902
LeftFoot  -28.545 -0.348077 -3.41881
LeftToes  1.06248e-005 4.65856e-005 -8.185e-006
70
root  36.4234 36.5343 -0.989173 78.6482 -89.5171 -74.0266
RightUpLeg  -40.6616 -11.3459 8.50031
RightLeg  38.0503 -8.75609 -7.53249
RightFoot  -7.70729 -0.0543474 0.058106
RightToes  0.00048216 0.542163 -0.142577
Spine  22.6844 -4.81735 4.38034
Spine1  8.19183 -5.83685 4.70214
HEad  -10.9568 7.94896 -8.50577
LeftShoulder1  9.89553 -13.8117 -49.8943
LeftArm  -7.48679 -12.48 -33.2797
LeftForeArm  30.6611 -32.9467 -5.53541
LeftHand  -0.25398 0.0180481 5.50724
RightShoulder  6.36011 10.2332 40.1523
RightArm  9.13354 -38.4561 36.4752
RightForeArm  -9.50717 27.2706 6.36307
RightHand  -1.63716 4.12519 -20.1094
LeftUpLeg  17.1564 9.92019 -0.491214
LeftLeg  13.6252 12.5273 0.610717
LeftFoot  -29.5964 -0.801207 -6.06789
LeftToes  1.06248e-005 4.65856e-005 -8.185e-006
71
root  34.542 36.0831 -0.86787 65.2244 -87.8611 -59.4391
RightUpLeg  -42.0715 -11.8216 9.65593
RightLeg  44.5049 -8.41844 -9.05824
RightFoot  -12.1025 -0.0874425 -0.331341
RightToes  0.00048216 0.542163 -0.142577
Spine  25.0595 -5.95064 7.82216
Spine1  6.31765 -6.31085 5.67622
HEad  -14.8437 7.94461 -10.7389
LeftShoulder1  10.2447 -14.2597 -50.3495
LeftArm  -5.67409 -13.7457 -34.8565
LeftForeArm  30.596 -36.2429 -6.37882
LeftHand  -0.25398 0.0180481 5.50724
RightShoulder  6.75948 10.7274 41.2779
RightArm  6.90002 -34.8582 34.286
RightForeArm  -10.0268 26.0634 6.10187
RightHand  -2.29216 6.70558 -22.1253
LeftUpLeg  16.3736 13.4138 2.18416
LeftLeg  19.2096 7.84484 3.23719
LeftFoot  -28.4842 -1.50934 -11.2693
LeftToes  1.06248e-005 4.65856e-005 -8.185e-006
72
root  32.6176 35.6392 -0.819713 67.9058 -86.8141 -61.0645
RightUpLeg  -42.6766 -11.9322 10.4386
RightLeg  49.8878 -7.85856 -10.2281
RightFoot  -15.619 -0.148906 -1.18532
RightToes  0.00048216 0.542163 -0.142577
Spine  27.3549 -6.56823 10.8164
Spine1  4.76343 -6.17759 6.41139
HEad  -18.8069 7.26477 -12.7068
LeftShoulder1  10.672 -14.7702 -50.9769
LeftArm  -3.2947 -15.2637 -36.3497
LeftForeArm  29.462 -37.7866 -6.86822
LeftHand  -0.25398 0.0180481 5.50724
RightShoulder  7.39702 11.3595 43.3858
RightArm  5.83881 -29.1211 30.8911
RightForeArm  -11.796 24.6851 5.86409
RightHand  -3.06878 9.11089 -24.6331
LeftUpLeg  12.3005 12.2106 3.14125
LeftLeg  30.6165 8.70317 5.94743
LeftFoot  -22.7792 -1.31721 -14.2415
LeftToes  1.06248e-005 4.65856e-005 -8.185e-006
73
root  30.6516 35.147 -0.838123 80.2947 -86.1378 -72.4023
RightUpLeg  -42.7975 -11.1718 11.1018
RightLeg  54.8678 -7.26809 -11.3745
RightFoot  -19.3327 -0.181124 -0.78803
RightToes  0.00048216 0.542163 -0.142577
Spine  29.0465 -6.42702 13.795
Spine1  3.71107 -4.99 6.25125
HEad  -22.4286 5.72343 -13.9393
LeftShoulder1  11.1946 -15.3097 -51.9213
LeftArm  -1.02054 -16.6857 -37.9781
LeftForeArm  28.9727 -37.3025 -6.76734
LeftHand  -0.25398 0.0180481 5.50724
RightShoulder  8.16541 12.1605 45.5467
RightArm  5.00192 -21.9013 27.3279
RightForeArm  -13.3648 23.3631 5.68176
RightHand  -3.79496 10.9516 -26.9391
LeftUpLeg  4.99438 11.8638 3.91392
LeftLeg  46.3335 8.16981 9.4441
LeftFoot  -13.9486 -0.200705 -11.0057
LeftToes  1.06248e-005 4.65856e-005 -8.185e-006
74
root  28.717 34.5899 -0.881587 91.9895 -84.8357 -83.2373
RightUpLeg  -42.2642 -10.3607 12.2656
RightLeg  59.3469 -6.58788 -12.3254
RightFoot  -23.5263 -0.0933758 0.622456
RightToes  0.00048216 0.542163 -0.142577
Spine  30.2705 -6.13582 17.2011
Spine1  3.02131 -3.3142 5.5487
HEad  -26.2148 3.80355 -14.5909
LeftShoulder1  11.704 -15.7688 -52.9625
LeftArm  0.581283 -17.2008 -39.2886
LeftForeArm  30.2457 -35.5413 -6.21715
LeftHand  -0.25398 0.0180481 5.50724
RightShoulder  8.80949 12.9438 46.8398
RightArm  3.4301 -13.0578 24.1194
RightForeArm  -13.2069 22.211 5.62318
RightHand  -4.26077 12.153 -28.1091
LeftUpLeg  -4.54642 10.5649 4.51346
LeftLeg  62.7116 5.77277 12.6097
LeftFoot  -8.78138 0.181147 -4.56584
LeftToes  1.06248e-005 4.65856e-005 -8.185e-006
